Patient4_TMGait_0pt7_02_left_25_EMG.mot
version=1
nRows=20
nColumns=33
inDegrees=no
endheader
time	1LAddLong	2LGlutMax	3LGlutMed	4LIliopsoas	5LSemiMemb	6LBicFemLong	7LRecFem	8LVastMed	9LVastLat	10LGasMed	11LTibAnt	12lTibPost	13LPeroneusLong	14LSol	15LExtDigLong	16LFlexDigLong	17RAddLong	18RGlutMax	19RGlutMed	20RIliopsoas	21RSemiMemb	22RBicFemLong	23RRecFem	24RVastMed	25RVastLat	26RGasMed	27RTibAnt	28RTibPost	29RPeroneusLong	30RSol	31RExtDigLong	32RFlexDigLong
28.845	0.020294	1.4563	-0.401	-0.024109	-0.023193	0.39597	-1.0899	0.000153	-0.12116	0.24933	0.17029	-0.47165	0.05127	-0.80841	0.2179	-0.23651	0.18082	-0.34103	0.064545	0.16815	-0.045319	0.040283	0.90347	-0.40146	0.00061	-0.015564	0.044403	-0.003815	-0.17654	0.11948	0.001831	-0.031891
28.846	0.031281	1.5329	-0.49881	-0.001678	-0.085602	0.4715	-1.0878	-0.015106	-0.13123	0.64072	0.13168	-0.23666	0.10788	-0.64651	0.083313	0.091858	0.016785	-0.32623	-0.17929	0.080109	0.020599	-0.10803	0.86319	-0.4007	0.015411	-0.003204	-0.48477	-0.00061	-0.12238	0.046997	0.002136	-0.033569
28.847	0.055695	1.6339	-0.1915	0.019073	-0.055542	0.41336	-1.0915	-0.010376	-0.10086	0.73059	0.001984	-0.059509	0.11673	-1.0202	0.036163	-0.82443	-0.11414	-0.25391	0.023499	-0.011444	0.048676	-0.1297	0.78964	-0.36682	0.025787	-0.001373	-0.12497	0.002747	-0.20706	-0.061798	0.000153	-0.034027
28.848	0.056	1.5668	0.002136	0.01709	0.036163	0.40726	-1.0345	-0.014038	-0.079346	0.87463	-0.16724	-0.082703	0.04715	-0.90698	-0.042725	-0.11353	-0.21896	-0.31097	0.20798	-0.017548	0.05188	-0.066376	0.78171	-0.2478	0.019989	0.007629	0.14374	-0.00412	-0.13473	-0.12878	0.001678	-0.033569
28.849	0.054016	1.3557	0.14847	-0.009308	0.062714	0.33676	-0.99121	-0.00824	-0.088196	0.68924	-0.1651	-0.093384	0.007477	-0.64941	-0.016632	-0.00885	-0.20218	-0.32379	0.36087	0.021973	-0.015564	0.018921	0.77499	-0.15488	0.016327	0.010071	0.25146	0.007172	-0.10284	-0.19836	0.001984	-0.029297
28.85	0.055695	1.0022	0.2034	0.006409	0.042419	0.07309	-1.0037	-0.022125	-0.012512	-0.18402	-0.075989	-0.054779	0.003967	-0.59296	0.083923	-0.007477	-0.13641	-0.37628	0.40192	0.008392	-0.016632	-0.008698	0.83038	0.02533	-0.005646	0.01358	0.27222	0.006866	-0.13504	-0.22064	-0.001068	-0.036469
28.851	0.03418	0.73273	0.15976	-0.001678	-0.022583	-0.16052	-0.9758	-0.016937	0.11032	-0.38086	0.015411	-0.001831	-0.007172	-0.69565	0.1767	-0.076752	-0.030823	-0.45807	0.18692	-0.072021	-0.003662	0.003815	0.91324	0.121	-0.007782	0.002747	-0.22888	0.009766	-0.15518	-0.14404	0.001678	-0.033875
28.852	0.03067	0.55084	0.12878	0.000305	-0.020142	-0.26733	-0.96054	-0.011444	0.14694	-0.19913	0.041199	-0.028839	-0.046539	-0.65964	0.72296	-0.10162	-0.006714	-0.51926	0.1181	-0.11597	-0.034485	0.057983	1.0234	0.13534	-0.039063	0.007477	-0.2945	0.005646	-0.14648	-0.047913	-0.005798	-0.035248
28.853	0.03067	0.29938	0.02182	-0.006866	-0.042725	-0.14694	-0.99747	-0.00061	0.072174	0.069275	0.24353	0.17731	-0.10193	-0.12512	0.87448	-0.064697	0.034332	-0.55725	0.13443	0.001678	-0.085144	-0.010071	1.0539	0.18295	-0.041809	-0.003967	-0.36224	0.002594	-0.078735	0.10727	0.001373	-0.031128
28.854	0.030518	0.16098	-0.012817	0.003357	-0.022583	0.11704	-1.0562	-0.006104	-0.016937	0.075989	0.48813	0.055084	-0.10071	0.30701	0.15167	0.10117	0.024719	-0.64484	0.17716	0.064697	-0.090027	0.014191	0.9642	0.18601	-0.029755	-0.003357	-0.15884	0.010071	-0.12451	0.15488	0.002289	-0.033569
28.855	0.036316	0.09903	-0.020447	-0.015106	-0.018616	0.014496	-1.1858	0.004272	-0.068054	-0.52826	0.6163	-0.22598	-0.10941	0.096893	0.5629	0.12299	0.015411	-0.71945	0.052643	0.03479	-0.055237	0.22492	0.9819	0.1564	-0.026855	0.000763	0.13382	0.00946	-0.14145	0.16968	-0.001373	-0.031433
28.856	0.023956	0.032196	-0.023193	-0.006561	-0.030365	0.11841	-1.1894	0.018005	0.098267	-0.9108	0.34836	-0.11688	-0.038147	0.097046	0.055389	0.030975	0.014801	-0.76446	-0.10498	0.12573	-0.048828	0.3273	0.92575	0.073395	-0.053253	-0.013885	-0.082397	0.007629	-0.1915	0.14786	-0.001526	-0.028992
28.857	0.012665	-0.10025	-0.00946	-0.007019	-0.039063	0.20218	-1.041	0.021515	0.20233	-0.88379	-0.30579	-0.24704	0.13046	0.56503	-0.45731	0.24933	0.048828	-0.77286	-0.053711	0.23529	-0.10895	0.47165	0.64743	0.001068	-0.043182	-0.012512	-0.12451	0.006866	-0.086212	0.15564	-0.001221	-0.011139
28.858	-0.001984	-0.12222	-0.037689	-0.007935	-0.033875	0.30182	-0.99792	0.015564	0.19348	-0.39215	-0.55817	0.51666	0.2211	0.44006	-0.34622	-1.4491	0.10071	-0.7486	0.11765	0.39002	-0.16144	0.4068	0.54336	-0.11292	-0.026703	-0.014038	0.096283	0.007172	-0.079803	0.11292	-0.001373	-0.023804
28.859	-0.002747	-0.11078	0.014343	-0.007019	-0.032806	0.29465	-1.0609	-0.001068	-0.05127	-0.16144	-0.47073	-0.49561	0.24399	-0.083923	-0.60486	-0.029297	0.27496	-0.63965	-0.23331	0.61951	-0.16327	0.30212	0.47195	-0.2269	-0.050964	-0.006409	0.25818	0.010681	-0.11856	-0.020142	0.003204	-0.010681
28.86	0.019531	-0.26413	0.030365	-0.023193	-0.049896	0.076141	-1.1406	-0.004578	-0.17731	-0.033264	-0.32867	-0.15793	0.21622	0.41199	-0.45441	0.049591	0.3865	-0.6134	-0.28336	0.68893	-0.19516	0.20966	0.3244	-0.22919	-0.007019	0.002899	0.044861	0.00946	-0.10346	-0.103	0.001373	-0.016785
28.861	0.002899	-0.49545	-0.021973	-0.009613	-0.060577	-0.19073	-1.118	-0.01236	-0.19318	0.43152	-0.16388	-0.13931	-0.016632	0.60638	-0.56244	1.118	0.30624	-0.50522	-0.19318	0.59387	-0.23315	0.11261	0.26947	-0.26627	0.004425	0.000763	-0.47897	0.008392	-0.037231	-0.075531	0.001068	-0.004883
28.862	-0.001984	-0.58304	-0.022583	-0.016785	-0.086823	-0.17563	-1.0712	-0.007172	-0.11643	0.62546	-0.080566	-0.078583	0.011292	0.50659	-0.4007	-1.4162	0.22278	-0.33569	0.029602	0.23575	-0.24948	0.17532	0.48843	-0.32654	0.009613	-0.002136	-0.5365	0.013885	0.007629	-0.027466	0.000458	-0.010071
28.863	-0.002136	-0.39887	0.083771	-0.018616	-0.1236	-0.052338	-1.0233	0.010376	-0.053101	0.27588	-0.12238	-0.087433	0.1294	0.45807	-0.46478	2.0329	0.12878	-0.14862	0.17624	-0.18845	-0.25604	0.32501	0.70282	-0.27588	0.005035	-0.00824	-0.48263	0.010681	-0.005188	-0.012665	0	-0.024109
28.864	-0.013885	-0.21149	0.00885	-0.001678	-0.13397	-0.06134	-0.94864	0.012054	0.001526	-0.14404	-0.072632	0.039673	0.15686	-0.51788	-0.37857	0.52719	-0.055237	0.15366	0.25971	-0.31036	-0.27115	0.34302	0.88974	-0.19119	0.032043	-0.002899	-0.46631	0.006409	-0.012817	0.067444	0.001221	-0.021362
